<svg xmlns="http://www.w3.org/2000/svg" viewBox="0 0 24 24">
  <path fill="#000" d="M12 2c5.52 0 10 4.48 10 10s-4.48 10-10 10S2 17.52 2 12 6.48 2 12 2Zm1 4h-2v1.1c-1.55.3-2.6 1.4-2.6 2.9 0 1.8 1.35 2.53 3.03 2.97l.57.15c1.33.34 1.9.62 1.9 1.38 0 .84-.8 1.35-1.9 1.35-1.2 0-2.02-.47-2.16-1.45H8.7c.15 1.68 1.44 2.66 2.3 2.9V18h2v-1.07c1.7-.33 2.8-1.52 2.8-3.03 0-1.95-1.58-2.62-3.11-3.01l-.58-.15c-1.05-.27-1.8-.55-1.8-1.25 0-.66.66-1.18 1.7-1.18 1.13 0 1.71.5 1.85 1.25h1.22c-.14-1.18-.86-2.21-2.08-2.5V6Z"/>
</svg>
