<svg xmlns="http://www.w3.org/2000/svg" viewBox="0 0 24 24">
  <path fill="#000" d="M4 13.5c0-.83.67-1.5 1.5-1.5h5c.83 0 1.5.67 1.5 1.5v5c0 .83-.67 1.5-1.5 1.5h-5C4.67 20 4 19.33 4 18.5v-5ZM12 5.5C12 4.67 12.67 4 13.5 4h5C19.33 4 20 4.67 20 5.5v5c0 .83-.67 1.5-1.5 1.5h-5c-.83 0-1.5-.67-1.5-1.5v-5ZM4 5.5C4 4.67 4.67 4 5.5 4h5C11.33 4 12 4.67 12 5.5v3c0 .83-.67 1.5-1.5 1.5h-5C4.67 10 4 9.33 4 8.5v-3ZM12 15.5c0-.83.67-1.5 1.5-1.5h5c.83 0 1.5.67 1.5 1.5v3c0 .83-.67 1.5-1.5 1.5h-5c-.83 0-1.5-.67-1.5-1.5v-3Z"/>
</svg>
